HIERARCHY
ROOT Hips
{
	OFFSET -335.845001 -574.368103 89.378365
	CHANNELS 6 Xposition Yposition Zposition Zrotation Yrotation Xrotation
	JOINT Spine
	{
		OFFSET 0.000000 2.080078 8.814247
		CHANNELS 6 Xposition Yposition Zposition Zrotation Yrotation Xrotation
		JOINT Spine1
		{
			OFFSET 0.000000 0.000000 8.844139
			CHANNELS 6 Xposition Yposition Zposition Zrotation Yrotation Xrotation
			JOINT Spine2
			{
				OFFSET 0.000000 0.000000 11.682266
				CHANNELS 6 Xposition Yposition Zposition Zrotation Yrotation Xrotation
				JOINT Spine3
				{
					OFFSET 0.000000 0.000000 11.746696
					CHANNELS 6 Xposition Yposition Zposition Zrotation Yrotation Xrotation
					JOINT Neck
					{
						OFFSET 0.000000 0.000000 17.658264
						CHANNELS 6 Xposition Yposition Zposition Zrotation Yrotation Xrotation
						JOINT Neck1
						{
							OFFSET 0.000000 0.000000 5.101517
							CHANNELS 6 Xposition Yposition Zposition Zrotation Yrotation Xrotation
							JOINT Head
							{
								OFFSET 0.000000 0.000000 5.101517
								CHANNELS 6 Xposition Yposition Zposition Zrotation Yrotation Xrotation
								JOINT HeadEnd
								{
									OFFSET 0.000000 0.000000 11.655090
									CHANNELS 6 Xposition Yposition Zposition Zrotation Yrotation Xrotation
									End Site
									{
										OFFSET 0.000000 0.000000 0.100006
									}
								}
							}
						}
					}
					JOINT RightShoulder
					{
						OFFSET -2.625397 0.000000 11.175217
						CHANNELS 6 Xposition Yposition Zposition Zrotation Yrotation Xrotation
						JOINT RightArm
						{
							OFFSET 0.000000 0.000000 10.434708
							CHANNELS 6 Xposition Yposition Zposition Zrotation Yrotation Xrotation
							JOINT RightForeArm
							{
								OFFSET 0.000000 0.000000 29.628418
								CHANNELS 6 Xposition Yposition Zposition Zrotation Yrotation Xrotation
								JOINT RightHand
								{
									OFFSET 0.000000 0.000000 22.857605
									CHANNELS 6 Xposition Yposition Zposition Zrotation Yrotation Xrotation
									JOINT RightHandThumb1
									{
										OFFSET -2.867310 -2.944275 3.959564
										CHANNELS 6 Xposition Yposition Zposition Zrotation Yrotation Xrotation
										JOINT RightHandThumb2
										{
											OFFSET 0.000000 0.000000 3.350403
											CHANNELS 6 Xposition Yposition Zposition Zrotation Yrotation Xrotation
											JOINT RightHandThumb3
											{
												OFFSET 0.000000 0.000000 3.756516
												CHANNELS 6 Xposition Yposition Zposition Zrotation Yrotation Xrotation
												JOINT RightHandThumb4
												{
													OFFSET 0.000000 0.000000 3.147339
													CHANNELS 6 Xposition Yposition Zposition Zrotation Yrotation Xrotation
													End Site
													{
														OFFSET 0.000000 0.000000 0.100006
													}
												}
											}
										}
									}
									JOINT RightHandIndex1
									{
										OFFSET -0.086761 -2.345276 10.030899
										CHANNELS 6 Xposition Yposition Zposition Zrotation Yrotation Xrotation
										JOINT RightHandIndex2
										{
											OFFSET 0.000000 0.000000 4.061096
											CHANNELS 6 Xposition Yposition Zposition Zrotation Yrotation Xrotation
											JOINT RightHandIndex3
											{
												OFFSET 0.000000 0.000000 3.248871
												CHANNELS 6 Xposition Yposition Zposition Zrotation Yrotation Xrotation
												JOINT RightHandIndex4
												{
													OFFSET 0.000000 0.000000 2.639709
													CHANNELS 6 Xposition Yposition Zposition Zrotation Yrotation Xrotation
													End Site
													{
														OFFSET 0.000000 0.000000 0.100006
													}
												}
											}
										}
									}
									JOINT RightHandMiddle1
									{
										OFFSET 0.104095 -0.006775 9.502945
										CHANNELS 6 Xposition Yposition Zposition Zrotation Yrotation Xrotation
										JOINT RightHandMiddle2
										{
											OFFSET 0.000000 0.000000 4.568726
											CHANNELS 6 Xposition Yposition Zposition Zrotation Yrotation Xrotation
											JOINT RightHandMiddle3
											{
												OFFSET 0.000000 0.000000 3.654984
												CHANNELS 6 Xposition Yposition Zposition Zrotation Yrotation Xrotation
												JOINT RightHandMiddle4
												{
													OFFSET 0.000000 0.000000 2.741241
													CHANNELS 6 Xposition Yposition Zposition Zrotation Yrotation Xrotation
													End Site
													{
														OFFSET 0.000000 0.000000 0.100006
													}
												}
											}
										}
									}
									JOINT RightHandRing1
									{
										OFFSET 0.086761 2.267456 8.921707
										CHANNELS 6 Xposition Yposition Zposition Zrotation Yrotation Xrotation
										JOINT RightHandRing2
										{
											OFFSET 0.000000 0.000000 4.061096
											CHANNELS 6 Xposition Yposition Zposition Zrotation Yrotation Xrotation
											JOINT RightHandRing3
											{
												OFFSET 0.000000 0.000000 3.654984
												CHANNELS 6 Xposition Yposition Zposition Zrotation Yrotation Xrotation
												JOINT RightHandRing4
												{
													OFFSET 0.000000 0.000000 2.741241
													CHANNELS 6 Xposition Yposition Zposition Zrotation Yrotation Xrotation
													End Site
													{
														OFFSET 0.000000 0.000000 0.100006
													}
												}
											}
										}
									}
									JOINT RightHandPinky1
									{
										OFFSET -0.173492 4.467224 7.976990
										CHANNELS 6 Xposition Yposition Zposition Zrotation Yrotation Xrotation
										JOINT RightHandPinky2
										{
											OFFSET 0.000000 0.000000 3.350403
											CHANNELS 6 Xposition Yposition Zposition Zrotation Yrotation Xrotation
											JOINT RightHandPinky3
											{
												OFFSET 0.000000 0.000000 2.842758
												CHANNELS 6 Xposition Yposition Zposition Zrotation Yrotation Xrotation
												JOINT RightHandPinky4
												{
													OFFSET 0.000000 0.000000 2.639709
													CHANNELS 6 Xposition Yposition Zposition Zrotation Yrotation Xrotation
													End Site
													{
														OFFSET 0.000000 0.000000 0.100006
													}
												}
											}
										}
									}
									JOINT RightForeArmEnd
									{
										OFFSET 0.000000 0.000000 0.000000
										CHANNELS 6 Xposition Yposition Zposition Zrotation Yrotation Xrotation
										End Site
										{
											OFFSET 0.000000 0.000000 0.100006
										}
									}
								}
								JOINT RightArmEnd
								{
									OFFSET 0.000000 0.000000 0.000000
									CHANNELS 6 Xposition Yposition Zposition Zrotation Yrotation Xrotation
									End Site
									{
										OFFSET 0.000000 0.000000 0.100006
									}
								}
							}
						}
					}
					JOINT LeftShoulder
					{
						OFFSET 2.625397 0.000000 11.175217
						CHANNELS 6 Xposition Yposition Zposition Zrotation Yrotation Xrotation
						JOINT LeftArm
						{
							OFFSET 0.000000 0.000000 10.813629
							CHANNELS 6 Xposition Yposition Zposition Zrotation Yrotation Xrotation
							JOINT LeftForeArm
							{
								OFFSET 0.000000 0.000000 28.724777
								CHANNELS 6 Xposition Yposition Zposition Zrotation Yrotation Xrotation
								JOINT LeftHand
								{
									OFFSET 0.644379 0.328857 25.716171
									CHANNELS 6 Xposition Yposition Zposition Zrotation Yrotation Xrotation
									JOINT LeftHandThumb1
									{
										OFFSET 2.867310 -2.944275 3.959564
										CHANNELS 6 Xposition Yposition Zposition Zrotation Yrotation Xrotation
										JOINT LeftHandThumb2
										{
											OFFSET 0.000000 0.000000 3.350403
											CHANNELS 6 Xposition Yposition Zposition Zrotation Yrotation Xrotation
											JOINT LeftHandThumb3
											{
												OFFSET 0.000000 0.000000 3.756516
												CHANNELS 6 Xposition Yposition Zposition Zrotation Yrotation Xrotation
												JOINT LeftHandThumb4
												{
													OFFSET 0.000000 0.000000 3.100006
													CHANNELS 6 Xposition Yposition Zposition Zrotation Yrotation Xrotation
													End Site
													{
														OFFSET 0.000000 0.000000 0.100006
													}
												}
											}
										}
									}
									JOINT LeftHandIndex1
									{
										OFFSET 0.086761 -2.345276 10.030899
										CHANNELS 6 Xposition Yposition Zposition Zrotation Yrotation Xrotation
										JOINT LeftHandIndex2
										{
											OFFSET 0.000000 0.000000 4.061096
											CHANNELS 6 Xposition Yposition Zposition Zrotation Yrotation Xrotation
											JOINT LeftHandIndex3
											{
												OFFSET 0.000000 0.000000 3.248871
												CHANNELS 6 Xposition Yposition Zposition Zrotation Yrotation Xrotation
												JOINT LeftHandIndex4
												{
													OFFSET 0.000000 0.000000 2.639709
													CHANNELS 6 Xposition Yposition Zposition Zrotation Yrotation Xrotation
													End Site
													{
														OFFSET 0.000000 0.000000 0.100006
													}
												}
											}
										}
									}
									JOINT LeftHandMiddle1
									{
										OFFSET -0.104095 -0.006775 9.502945
										CHANNELS 6 Xposition Yposition Zposition Zrotation Yrotation Xrotation
										JOINT LeftHandMiddle2
										{
											OFFSET 0.000000 0.000000 4.568726
											CHANNELS 6 Xposition Yposition Zposition Zrotation Yrotation Xrotation
											JOINT LeftHandMiddle3
											{
												OFFSET 0.000000 0.000000 3.654984
												CHANNELS 6 Xposition Yposition Zposition Zrotation Yrotation Xrotation
												JOINT LeftHandMiddle4
												{
													OFFSET 0.000000 0.000000 2.741241
													CHANNELS 6 Xposition Yposition Zposition Zrotation Yrotation Xrotation
													End Site
													{
														OFFSET 0.000000 0.000000 0.100006
													}
												}
											}
										}
									}
									JOINT LeftHandRing1
									{
										OFFSET -0.086761 2.267456 8.921707
										CHANNELS 6 Xposition Yposition Zposition Zrotation Yrotation Xrotation
										JOINT LeftHandRing2
										{
											OFFSET 0.000000 0.000000 4.061096
											CHANNELS 6 Xposition Yposition Zposition Zrotation Yrotation Xrotation
											JOINT LeftHandRing3
											{
												OFFSET 0.000000 0.000000 3.654984
												CHANNELS 6 Xposition Yposition Zposition Zrotation Yrotation Xrotation
												JOINT LeftHandRing4
												{
													OFFSET 0.000000 0.000000 2.741241
													CHANNELS 6 Xposition Yposition Zposition Zrotation Yrotation Xrotation
													End Site
													{
														OFFSET 0.000000 0.000000 0.100006
													}
												}
											}
										}
									}
									JOINT LeftHandPinky1
									{
										OFFSET 0.173492 4.467224 7.976990
										CHANNELS 6 Xposition Yposition Zposition Zrotation Yrotation Xrotation
										JOINT LeftHandPinky2
										{
											OFFSET 0.000000 0.000000 3.350403
											CHANNELS 6 Xposition Yposition Zposition Zrotation Yrotation Xrotation
											JOINT LeftHandPinky3
											{
												OFFSET 0.000000 0.000000 2.842758
												CHANNELS 6 Xposition Yposition Zposition Zrotation Yrotation Xrotation
												JOINT LeftHandPinky4
												{
													OFFSET 0.000000 0.000000 2.639709
													CHANNELS 6 Xposition Yposition Zposition Zrotation Yrotation Xrotation
													End Site
													{
														OFFSET 0.000000 0.000000 0.100006
													}
												}
											}
										}
									}
									JOINT LeftForeArmEnd
									{
										OFFSET 0.000000 0.000000 0.000000
										CHANNELS 6 Xposition Yposition Zposition Zrotation Yrotation Xrotation
										End Site
										{
											OFFSET 0.000000 0.000000 0.100006
										}
									}
								}
								JOINT LeftArmEnd
								{
									OFFSET 0.000000 0.000000 0.000000
									CHANNELS 6 Xposition Yposition Zposition Zrotation Yrotation Xrotation
									End Site
									{
										OFFSET 0.000000 0.000000 0.100006
									}
								}
							}
						}
					}
				}
			}
		}
	}
	JOINT RightUpLeg
	{
		OFFSET -11.289948 0.000000 0.000000
		CHANNELS 6 Xposition Yposition Zposition Zrotation Yrotation Xrotation
		JOINT RightLeg
		{
			OFFSET 0.000000 0.000000 -38.200329
			CHANNELS 6 Xposition Yposition Zposition Zrotation Yrotation Xrotation
			JOINT RightFoot
			{
				OFFSET 0.000000 0.000000 -39.900856
				CHANNELS 6 Xposition Yposition Zposition Zrotation Yrotation Xrotation
				JOINT RightToeBase
				{
					OFFSET 0.000000 -15.261658 0.000002
					CHANNELS 6 Xposition Yposition Zposition Zrotation Yrotation Xrotation
					JOINT RightToeBaseEnd
					{
						OFFSET 0.000000 -7.370728 0.000000
						CHANNELS 6 Xposition Yposition Zposition Zrotation Yrotation Xrotation
						End Site
						{
							OFFSET 0.000000 0.000000 0.100000
						}
					}
				}
				JOINT RightLegEnd
				{
					OFFSET 0.000000 0.000000 0.000000
					CHANNELS 6 Xposition Yposition Zposition Zrotation Yrotation Xrotation
					End Site
					{
						OFFSET 0.000000 0.000000 0.100000
					}
				}
			}
			JOINT RightUpLegEnd
			{
				OFFSET 0.000000 0.000000 0.000000
				CHANNELS 6 Xposition Yposition Zposition Zrotation Yrotation Xrotation
				End Site
				{
					OFFSET 0.000000 0.000000 0.099998
				}
			}
		}
	}
	JOINT LeftUpLeg
	{
		OFFSET 11.315674 0.000000 0.000000
		CHANNELS 6 Xposition Yposition Zposition Zrotation Yrotation Xrotation
		JOINT LeftLeg
		{
			OFFSET 0.000000 0.000000 -38.200329
			CHANNELS 6 Xposition Yposition Zposition Zrotation Yrotation Xrotation
			JOINT LeftFoot
			{
				OFFSET 0.000000 0.000000 -39.900856
				CHANNELS 6 Xposition Yposition Zposition Zrotation Yrotation Xrotation
				JOINT LeftToeBase
				{
					OFFSET 0.000000 -15.261658 0.000002
					CHANNELS 6 Xposition Yposition Zposition Zrotation Yrotation Xrotation
					JOINT LeftToeBaseEnd
					{
						OFFSET 0.000000 -7.539978 0.000000
						CHANNELS 6 Xposition Yposition Zposition Zrotation Yrotation Xrotation
						End Site
						{
							OFFSET 0.000000 0.000000 0.100000
						}
					}
				}
				JOINT LeftLegEnd
				{
					OFFSET 0.000000 0.000000 0.000000
					CHANNELS 6 Xposition Yposition Zposition Zrotation Yrotation Xrotation
					End Site
					{
						OFFSET 0.000000 0.000000 0.100000
					}
				}
			}
			JOINT LeftUpLegEnd
			{
				OFFSET 0.000000 0.000000 0.000000
				CHANNELS 6 Xposition Yposition Zposition Zrotation Yrotation Xrotation
				End Site
				{
					OFFSET 0.000000 0.000000 0.099998
				}
			}
		}
	}
}
MOTION
Frames: 2
Frame Time: 0.016667
-28.799316 -18.829834 88.919029 18.160703 1.046779 -2.291190 -0.000004 2.080094 8.814252 0.131406 -1.538248 3.694974 -0.000010 0.000017 8.844145 0.000800 0.770148 1.591969 0.000012 0.000027 11.682280 -3.026146 0.623955 1.557902 -0.000011 0.000003 11.746684 -1.240482 1.918418 0.325708 0.000008 0.000019 17.658264 -3.939224 -6.578350 8.827064 0.000012 -0.000090 5.101490 -0.764141 -0.290105 -1.559178 0.000008 0.000001 5.101512 -0.747756 -0.341300 -16.323312 0.000009 -0.000007 11.655089 0.000001 0.000000 0.000000 -2.625386 -0.000018 11.175213 13.013897 -87.253058 0.187755 -0.000023 0.000011 10.434727 -45.622262 -57.453345 44.854501 -0.000019 -0.000008 29.628452 20.442375 2.416882 119.734309 -0.000025 -0.000034 22.857574 11.052859 27.909842 27.641161 -2.867291 -2.944229 3.959549 33.066520 -28.151905 36.350540 -0.000038 0.000015 3.350422 -36.541563 9.623303 -61.392766 -0.000015 0.000000 3.756493 -24.484930 11.025475 -42.041337 -0.000012 -0.000057 3.147352 -0.000001 -0.000000 0.000000 -0.086750 -2.345211 10.030888 54.008625 -112.720681 -51.012863 -0.000050 -0.000086 4.061111 -16.690981 -70.914623 23.965947 0.000008 -0.000061 3.248863 -17.190971 -70.914658 23.965962 -0.000016 -0.000015 2.639696 0.000003 -0.000001 0.000000 0.104073 -0.006767 9.502903 44.166445 -109.100565 -36.854164 -0.000029 -0.000007 4.568666 -6.586515 -72.612595 9.634460 -0.000015 -0.000006 3.654909 -7.086515 -72.612561 9.634453 -0.000015 0.000005 2.741245 -0.000001 -0.000001 0.000001 0.086792 2.267511 8.921732 11.063326 -115.480385 1.702313 -0.000011 -0.000033 4.061127 14.335082 -79.100018 -18.518637 -0.000040 -0.000035 3.654987 15.335168 -79.100004 -18.518706 -0.000032 -0.000001 2.741228 -0.000000 0.000000 0.000002 -0.173462 4.467207 7.976990 -6.723583 -121.562614 23.130997 -0.000023 -0.000149 3.350424 41.358185 -76.420705 -53.585488 -0.000019 -0.000061 2.842762 43.358198 -76.420705 -53.585498 -0.000022 -0.000050 2.639705 -0.000002 0.000001 0.000001 0.000005 0.000066 0.000007 0.000001 0.000001 0.000000 -0.000003 0.000005 -0.000020 -0.000002 0.000000 -0.000003 2.625381 -0.000030 11.175220 -11.048176 85.030562 -0.104160 0.000008 -0.000008 10.813622 59.352377 46.836636 60.513543 0.000015 -0.000015 28.724834 -16.489757 1.393592 123.960639 0.644379 0.328758 25.716116 15.624493 -42.556020 2.476897 2.867243 -2.944321 3.959564 -33.290342 28.737563 35.568494 0.000023 0.000015 3.350479 37.740145 -9.253303 -63.358768 -0.000046 0.000000 3.756496 25.360827 -11.059416 -43.437848 -0.000053 0.000001 3.100012 -0.000000 -0.000003 -0.000001 0.086750 -2.345300 10.030977 -7.992196 100.339823 -18.069076 0.000038 0.000004 4.061127 -14.969210 69.545949 -22.136500 0.000011 0.000000 3.248863 -15.469217 69.545942 -22.136503 -0.000020 0.000003 2.639712 0.000001 0.000000 0.000001 -0.104118 -0.006746 9.502998 -32.022963 102.033034 -36.209213 0.000050 -0.000102 4.568718 -5.323158 70.049573 -8.301271 0.000038 -0.000088 3.655048 -5.823103 70.049553 -8.301210 -0.000056 0.000003 2.741255 -0.000002 -0.000002 0.000000 -0.086769 2.267450 8.921783 -37.120927 113.544395 -33.535809 0.000008 0.000004 4.061153 9.969451 75.857959 14.048562 -0.000002 -0.000012 3.655067 10.969417 75.857911 14.048481 -0.000024 -0.000024 2.741270 0.000003 0.000001 -0.000002 0.173500 4.467148 7.977020 -48.341190 120.204649 -35.606749 -0.000031 0.000023 3.350430 32.397332 74.455148 44.329850 0.000008 -0.000008 2.842846 34.397273 74.455120 44.329772 -0.000035 -0.000008 2.639719 0.000001 -0.000000 -0.000001 -0.000028 -0.000051 0.000035 0.000000 0.000000 -0.000003 -0.000006 -0.000003 -0.000008 -0.000000 0.000001 0.000001 -11.289957 0.000067 0.000000 -18.122877 -3.302603 3.290248 -0.000026 0.000079 -38.200336 -0.573048 0.045445 4.715470 0.000007 -0.000069 -39.900860 -10.412311 2.472031 21.111550 -0.000023 -15.261768 0.000020 0.516281 0.550916 -22.689856 0.000035 -7.370671 -0.000000 0.000001 0.000000 0.000000 0.000001 0.000065 -0.000001 -0.000001 0.000000 0.000001 -0.000000 0.000061 0.000003 -0.000000 -0.000000 0.000001 11.315664 -0.000022 0.000003 -13.590603 2.406411 -6.182250 0.000020 0.000038 -38.200314 -0.304788 0.112400 20.243788 0.000041 -0.000011 -39.900856 12.159805 -4.512830 13.870818 -0.000041 -15.261694 0.000020 0.844311 -0.699910 -24.341496 -0.000025 -7.539978 -0.000001 -0.000000 0.000000 -0.000000 -0.000042 0.000011 0.000001 -0.000002 0.000001 0.000000 0.000028 -0.000001 0.000003 0.000000 -0.000000 -0.000001 
-29.156738 -18.719177 88.982590 18.743868 0.748147 -2.150403 -0.000010 2.080094 8.814246 0.222448 -1.477224 3.722772 -0.000002 -0.000023 8.844141 0.010765 0.801253 1.751934 0.000034 -0.000026 11.682268 -2.979468 0.669554 1.532864 -0.000020 0.000005 11.746703 -1.241382 2.101052 0.332632 -0.000010 0.000006 17.658260 -3.002465 -5.606956 7.670987 0.000003 0.000014 5.101510 -0.106968 -0.471152 -1.831541 -0.000014 -0.000007 5.101498 -0.713128 -0.236279 -15.911523 0.000004 0.000003 11.655054 -0.000001 -0.000000 0.000000 -2.625381 0.000004 11.175219 13.533288 -85.267494 0.232026 0.000004 -0.000003 10.434746 -52.136217 -62.927318 50.289587 -0.000011 0.000061 29.628376 21.522729 2.496392 119.524813 -0.000017 -0.000046 22.857590 12.950936 30.259435 25.524458 -2.867305 -2.944260 3.959518 32.995353 -27.956832 36.610931 -0.000038 -0.000015 3.350410 -36.138995 9.737571 -60.735292 0.000015 0.000000 3.756531 -24.193211 11.009508 -41.576007 -0.000001 -0.000060 3.147322 -0.000000 0.000000 0.000000 -0.086761 -2.345277 10.030876 59.820887 -111.314598 -57.505487 -0.000008 -0.000032 4.061134 -14.543185 -69.172509 21.681259 -0.000011 -0.000082 3.248871 -15.043227 -69.172577 21.681298 -0.000038 -0.000008 2.639716 0.000002 -0.000001 0.000001 0.104099 -0.006842 9.502922 51.411811 -107.114517 -44.845093 0.000000 -0.000028 4.568655 -5.520325 -70.499983 8.510735 -0.000023 0.000016 3.654936 -6.020326 -70.499935 8.510739 -0.000038 -0.000004 2.741246 -0.000000 -0.000001 0.000000 0.086754 2.267483 8.921705 13.479720 -111.823420 -1.350492 -0.000004 -0.000037 4.061115 10.793394 -76.617333 -14.896817 -0.000021 -0.000058 3.654957 11.793256 -76.617258 -14.896675 -0.000043 -0.000022 2.741228 0.000002 0.000000 0.000000 -0.173477 4.467121 7.976959 -7.045790 -117.282216 23.351525 -0.000038 -0.000053 3.350418 32.700111 -74.537561 -44.644060 0.000008 0.000011 2.842712 34.700076 -74.537540 -44.644036 -0.000018 -0.000051 2.639730 -0.000001 0.000001 0.000000 0.000009 -0.000001 -0.000021 0.000000 -0.000000 0.000003 -0.000002 -0.000005 -0.000013 0.000000 0.000000 -0.000002 2.625404 0.000028 11.175220 -11.238064 83.410639 -0.077319 -0.000023 0.000010 10.813622 60.804823 49.038156 62.527807 0.000011 -0.000023 28.724770 -15.445602 1.466679 123.745351 0.644363 0.328819 25.716141 18.300375 -43.363420 0.519372 2.867239 -2.944321 3.959564 -33.213991 28.542280 35.829356 -0.000023 0.000000 3.350479 37.342201 -9.381131 -62.704552 -0.000046 -0.000008 3.756481 25.068760 -11.050432 -42.972265 -0.000016 0.000053 3.100014 0.000001 -0.000001 0.000000 0.086735 -2.345264 10.030933 -9.443666 98.931335 -18.715451 -0.000004 0.000010 4.061134 -13.880287 68.560353 -20.970583 0.000023 0.000010 3.248909 -14.380378 68.560401 -20.970650 -0.000057 0.000010 2.639730 0.000001 0.000000 -0.000002 -0.104074 -0.006798 9.502993 -35.963630 100.915307 -39.485132 0.000038 -0.000065 4.568724 -4.929192 69.082138 -7.880891 -0.000013 -0.000091 3.655024 -5.429222 69.082173 -7.880912 -0.000034 0.000004 2.741274 -0.000000 -0.000000 0.000001 -0.086739 2.267423 8.921745 -39.320385 112.483633 -35.419705 -0.000008 0.000000 4.061172 9.089865 74.940986 13.139653 -0.000027 0.000010 3.654999 10.089846 74.940972 13.139623 -0.000039 0.000009 2.741240 -0.000002 0.000001 0.000001 0.173500 4.467142 7.976967 -50.482109 119.289377 -37.948644 0.000008 -0.000034 3.350460 29.877276 73.714475 41.709438 -0.000031 0.000011 2.842827 31.877190 73.714455 41.709336 -0.000031 -0.000004 2.639710 0.000001 0.000000 0.000000 -0.000025 -0.000050 0.000036 -0.000002 0.000001 -0.000002 -0.000014 -0.000007 0.000010 0.000001 0.000005 0.000001 -11.289954 0.000005 0.000000 -18.855740 -3.257174 2.911949 0.000002 0.000083 -38.200336 -0.534661 0.044106 5.003842 0.000008 -0.000072 -39.900852 -10.303246 2.706053 21.024524 0.000009 -15.261720 0.000046 0.471370 0.526530 -22.676976 0.000008 -7.370669 -0.000001 0.000000 -0.000000 -0.000001 0.000011 0.000001 0.000001 -0.000000 0.000000 0.000001 -0.000000 0.000061 -0.000004 0.000000 0.000000 0.000000 11.315724 -0.000031 -0.000008 -12.369193 2.201106 -6.736502 0.000029 -0.000013 -38.200336 -0.442994 0.168666 20.844154 0.000045 0.000071 -39.900837 14.948299 -4.551777 14.267067 0.000010 -15.261644 0.000010 1.044838 -0.833306 -24.506910 -0.000027 -7.539972 -0.000002 -0.000001 -0.000000 -0.000000 0.000008 0.000051 0.000002 0.000002 -0.000000 0.000002 0.000028 0.000003 0.000007 -0.000000 0.000000 -0.000001 
